<svg id="Layer_1" data-name="Layer 1" xmlns="http://www.w3.org/2000/svg" viewBox="0 0 36 36"><defs><style>.cls-1{fill:#d2d2d2;}.cls-2,.cls-3{fill:none;}.cls-2{stroke:#e1e1e1;stroke-linecap:round;stroke-linejoin:round;}</style></defs><title>icon_icon_table_secondary</title><polygon class="cls-1" points="27.6 15.6 8.4 15.6 8.4 11.6 9.2 10.8 26.8 10.8 27.6 11.6 27.6 15.6"/><rect class="cls-2" x="8.4" y="10.8" width="19.2" height="14.4" rx="2" ry="2"/><line class="cls-2" x1="8.4" y1="15.6" x2="27.6" y2="15.6"/><line class="cls-2" x1="8.4" y1="18.8" x2="27.6" y2="18.8"/><line class="cls-2" x1="8.4" y1="22" x2="27.6" y2="22"/><line class="cls-2" x1="11.6" y1="25.2" x2="11.6" y2="15.6"/><line class="cls-2" x1="14.8" y1="25.2" x2="14.8" y2="15.6"/><line class="cls-2" x1="18" y1="25.2" x2="18" y2="15.6"/><line class="cls-2" x1="21.2" y1="25.2" x2="21.2" y2="15.6"/><line class="cls-2" x1="24.4" y1="25.2" x2="24.4" y2="15.6"/><polyline class="cls-3" points="36 36 0 36 0 0 36 0"/></svg>