<svg id="Layer_1" data-name="Layer 1" xmlns="http://www.w3.org/2000/svg" viewBox="0 0 36 36"><defs><style>.cls-1{fill:#e1e1e1;}.cls-2{fill:none;}</style></defs><title>icon_constant_secondary</title><path class="cls-1" d="M15.19,14.93q0,6.44-.8,8.8a3.68,3.68,0,0,1-1,1.77,2.39,2.39,0,0,1-1.52.5,2.08,2.08,0,0,1-1.44-.44,2.12,2.12,0,0,1-.73-1,5.83,5.83,0,0,1-.22-1.41l-.06-1.47h.8a2.78,2.78,0,0,0,.31,1.22,1.12,1.12,0,0,0,1,.7q1.53,0,2.17-2.66A32.54,32.54,0,0,0,14.23,14v-1h-1.7a2,2,0,0,0-1.41.45,2.15,2.15,0,0,0-.67,1.16h-.8a13.15,13.15,0,0,1,.45-1.86,3.19,3.19,0,0,1,.8-1.25,3.63,3.63,0,0,1,1.53-.73,13.37,13.37,0,0,1,2.47-.19q5.66.09,9.83.25a1.24,1.24,0,0,0,1-.33A1,1,0,0,0,26,10h.64A3.71,3.71,0,0,1,26,12.46a2.37,2.37,0,0,1-1.86.61H22.45v9.44q-.06,2.28,1.41,2.31a1.14,1.14,0,0,0,.94-.45,3.35,3.35,0,0,0,.55-1,11.06,11.06,0,0,0,.31-2.56h.8q0,.77-.06,1.66a6.18,6.18,0,0,1-.48,1.67,2.88,2.88,0,0,1-1,1.28,3.27,3.27,0,0,1-1.92.56,3,3,0,0,1-2.59-1.23,4.58,4.58,0,0,1-.7-2.56V13.07H15.19Z"/><rect class="cls-2" width="36" height="36"/></svg>