<svg id="Layer_1" data-name="Layer 1" xmlns="http://www.w3.org/2000/svg" xmlns:xlink="http://www.w3.org/1999/xlink" viewBox="0 0 36 36"><defs><style>.cls-1,.cls-4{fill:none;}.cls-2{clip-path:url(#clip-path);}.cls-3,.cls-7{fill:#e1e1e1;}.cls-4,.cls-7{stroke:#fff;}.cls-4{stroke-linecap:round;stroke-linejoin:round;}.cls-5{fill:#d2d2d2;}.cls-6{opacity:0.1;}.cls-7{stroke-miterlimit:10;}.cls-8{fill:#fff;}</style><clipPath id="clip-path"><path class="cls-1" d="M25.5,26.25a1.5,1.5,0,0,1-1.5,1.5H9a1.5,1.5,0,0,1-1.5-1.5V6.75A1.5,1.5,0,0,1,9,5.25H19.5a4.17,4.17,0,0,1,2.56,1.06l2.38,2.38a4.17,4.17,0,0,1,1.06,2.56Z"/></clipPath></defs><title>icon_icon_form_secondary</title><g class="cls-2"><path class="cls-3" d="M25.5,25.75a2,2,0,0,1-2,2H9.5a2,2,0,0,1-2-2V7.25a2,2,0,0,1,2-2H19a5.56,5.56,0,0,1,3.41,1.41l1.67,1.67a5.56,5.56,0,0,1,1.41,3.41Z"/><line class="cls-4" x1="10.5" y1="12.75" x2="22.5" y2="12.75"/><line class="cls-4" x1="10.5" y1="15" x2="22.5" y2="15"/><line class="cls-4" x1="10.5" y1="21.75" x2="16.5" y2="21.75"/><line class="cls-4" x1="10.5" y1="17.25" x2="22.5" y2="17.25"/><line class="cls-4" x1="10.5" y1="19.5" x2="22.5" y2="19.5"/><path class="cls-5" d="M24.84,9.09c.78.78.51,1.41-.59,1.41h-2a2,2,0,0,1-2-2v-2c0-1.1.64-1.36,1.41-.59Z"/><polygon class="cls-6" points="21.22 10.5 25.5 16.98 25.49 10.5 21.22 10.5"/></g><circle class="cls-7" cx="24" cy="26.25" r="4.5"/><rect class="cls-5" x="23.37" y="24.07" width="1.13" height="4.5" transform="translate(25.62 -9.22) rotate(45)"/><polygon class="cls-8" points="21.55 28.7 21.95 27.51 22.74 28.3 21.55 28.7"/><rect class="cls-8" x="25.23" y="24.08" width="1.13" height="0.75" transform="translate(24.85 -11.07) rotate(45)"/><rect class="cls-1" width="36" height="36"/></svg>