<svg id="Layer_1" data-name="Layer 1" xmlns="http://www.w3.org/2000/svg" viewBox="0 0 36 36"><defs><style>.cls-1{fill:#d2d2d2;}.cls-2,.cls-3{fill:none;}.cls-2{stroke:#e1e1e1;stroke-linecap:round;stroke-linejoin:round;}</style></defs><title>icon_formula_secondary</title><polygon class="cls-1" points="10.5 29 15.5 19 20.5 19 25.5 29 10.5 29"/><path class="cls-2" d="M17,29h7.5a.57.57,0,0,0,.55-.89l-4.11-8.21A5,5,0,0,1,20.5,18V15c0-.55.28-1,.63-1s.63-.45.63-1v-.5a1,1,0,0,0-1-1h-5.5a1,1,0,0,0-1,1V13c0,.55.28,1,.63,1s.63.45.63,1v3a5,5,0,0,1-.45,1.89l-4.11,8.21a.57.57,0,0,0,.55.89Z"/><circle class="cls-1" cx="15.52" cy="8" r="1"/><circle class="cls-1" cx="19.02" cy="9" r="1.5"/><circle class="cls-1" cx="19.02" cy="13.5" r="0.5"/><circle class="cls-1" cx="18" cy="16" r="1"/><rect class="cls-3" width="36" height="36"/></svg>