<svg id="Layer_1" data-name="Layer 1" xmlns="http://www.w3.org/2000/svg" viewBox="0 0 630 126"><defs><style>.cls-1,.cls-2,.cls-3{fill:none;stroke:#c3c3c3;stroke-miterlimit:10;}.cls-1{stroke-width:6px;}.cls-2,.cls-3{stroke-width:2px;}.cls-3{stroke-dasharray:12 12;}.cls-4{font-size:24px;font-family:HelveticaNeue-Bold, Helvetica Neue;font-weight:700;}.cls-4,.cls-5{fill:#c3c3c3;}.cls-5{font-size:12px;font-family:Helvetica, Helvetica;}</style></defs><title>animation_info_noitemselected</title><polyline class="cls-1" points="3 43 3 3 43 3"/><polyline class="cls-1" points="627 43 627 3 587 3"/><polyline class="cls-1" points="3 83 3 123 43 123"/><polyline class="cls-1" points="627 83 627 123 587 123"/><polyline class="cls-2" points="627 117 627 123 621 123"/><line class="cls-3" x1="609" y1="123" x2="15" y2="123"/><polyline class="cls-2" points="9 123 3 123 3 117"/><line class="cls-3" x1="3" y1="105" x2="3" y2="15"/><polyline class="cls-2" points="3 9 3 3 9 3"/><line class="cls-3" x1="21" y1="3" x2="615" y2="3"/><polyline class="cls-2" points="621 3 627 3 627 9"/><line class="cls-3" x1="627" y1="21" x2="627" y2="111"/><text class="cls-4" transform="translate(216.59 53.87)">No Item Selected</text><text class="cls-5" transform="translate(195.28 74.52)">please select one of item in the directory list, <tspan x="31.34" y="14.4">or create a new one to begin with</tspan></text></svg>